<svg width="13" height="13" viewBox="0 0 13 13" fill="none" xmlns="http://www.w3.org/2000/svg">
<path d="M5.18062 0.652973C5.50278 -0.217645 6.73416 -0.217643 7.05632 0.652975L8.11962 3.5265C8.22091 3.80022 8.43672 4.01603 8.71044 4.11732L11.584 5.18062C12.4546 5.50278 12.4546 6.73416 11.584 7.05632L8.71044 8.11962C8.43672 8.22091 8.22091 8.43672 8.11962 8.71044L7.05632 11.584C6.73416 12.4546 5.50278 12.4546 5.18062 11.584L4.11732 8.71044C4.01603 8.43672 3.80022 8.22091 3.5265 8.11962L0.652973 7.05632C-0.217645 6.73416 -0.217644 5.50278 0.652975 5.18062L3.5265 4.11732C3.80022 4.01603 4.01603 3.80022 4.11732 3.5265L5.18062 0.652973Z" fill="black"/>
</svg>
